<svg width="168" height="64" viewBox="0 0 168 64" fill="none" xmlns="http://www.w3.org/2000/svg">
<g filter="url(#filter0_d_2154_715)">
<rect x="4" width="160" height="56" rx="8" fill="#09090B" shape-rendering="crispEdges"/>
<rect x="4.5" y="0.5" width="159" height="55" rx="7.5" stroke="#A1A1AA" shape-rendering="crispEdges"/>
<path d="M40.9829 42.7161C39.2409 44.4048 37.3389 44.1382 35.5081 43.3383C33.5705 42.5206 31.793 42.485 29.7488 43.3383C27.1891 44.4403 25.8382 44.1204 24.3095 42.7161C15.635 33.775 16.9148 20.159 26.7625 19.6613C29.1622 19.7857 30.8331 20.9766 32.2374 21.0833C34.3349 20.6567 36.3435 19.4302 38.5832 19.5902C41.2673 19.8035 43.2937 20.87 44.6269 22.7897C39.0809 26.1138 40.3963 33.4195 45.4801 35.4637C44.4669 38.13 43.1515 40.7786 40.9651 42.7339L40.9829 42.7161ZM32.0596 19.5546C31.793 15.5907 35.0103 12.32 38.7077 12C39.2231 16.5861 34.5482 19.999 32.0596 19.5546Z" fill="#F4F4F5"/>
<path d="M56.9588 21V12.2727H60.1548C60.7741 12.2727 61.2869 12.375 61.6932 12.5795C62.0994 12.7812 62.4034 13.0554 62.6051 13.402C62.8068 13.7457 62.9077 14.1335 62.9077 14.5653C62.9077 14.929 62.8409 15.2358 62.7074 15.4858C62.5739 15.733 62.3949 15.9318 62.1705 16.0824C61.9489 16.2301 61.7045 16.3381 61.4375 16.4062V16.4915C61.7273 16.5057 62.0099 16.5994 62.2855 16.7727C62.5639 16.9432 62.794 17.1861 62.9759 17.5014C63.1577 17.8168 63.2486 18.2003 63.2486 18.652C63.2486 19.098 63.1435 19.4986 62.9332 19.8537C62.7259 20.206 62.4048 20.4858 61.9702 20.6932C61.5355 20.8977 60.9801 21 60.304 21H56.9588ZM58.2756 19.8707H60.1761C60.8068 19.8707 61.2585 19.7486 61.5312 19.5043C61.804 19.2599 61.9403 18.9545 61.9403 18.5881C61.9403 18.3125 61.8707 18.0597 61.7315 17.8295C61.5923 17.5994 61.3935 17.4162 61.1349 17.2798C60.8793 17.1435 60.5753 17.0753 60.223 17.0753H58.2756V19.8707ZM58.2756 16.0483H60.0398C60.3352 16.0483 60.6009 15.9915 60.8366 15.8778C61.0753 15.7642 61.2642 15.6051 61.4034 15.4006C61.5455 15.1932 61.6165 14.9489 61.6165 14.6676C61.6165 14.3068 61.4901 14.0043 61.2372 13.7599C60.9844 13.5156 60.5966 13.3935 60.0739 13.3935H58.2756V16.0483ZM66.6129 21.1449C66.1982 21.1449 65.8232 21.0682 65.4879 20.9148C65.1527 20.7585 64.8871 20.5327 64.6911 20.2372C64.4979 19.9418 64.4013 19.5795 64.4013 19.1506C64.4013 18.7812 64.4723 18.4773 64.6143 18.2386C64.7564 18 64.9482 17.8111 65.1896 17.6719C65.4311 17.5327 65.701 17.4276 65.9993 17.3565C66.2976 17.2855 66.6016 17.2315 66.9112 17.1946C67.3033 17.1491 67.6214 17.1122 67.8658 17.0838C68.1101 17.0526 68.2876 17.0028 68.3984 16.9347C68.5092 16.8665 68.5646 16.7557 68.5646 16.6023V16.5724C68.5646 16.2003 68.4595 15.9119 68.2493 15.7074C68.0419 15.5028 67.7322 15.4006 67.3203 15.4006C66.8913 15.4006 66.5533 15.4957 66.3061 15.6861C66.0618 15.8736 65.8928 16.0824 65.799 16.3125L64.6016 16.0398C64.7436 15.642 64.951 15.321 65.2237 15.0767C65.4993 14.8295 65.8161 14.6506 66.174 14.5398C66.532 14.4261 66.9084 14.3693 67.3033 14.3693C67.5646 14.3693 67.8416 14.4006 68.1342 14.4631C68.4297 14.5227 68.7053 14.6335 68.9609 14.7955C69.2195 14.9574 69.4311 15.1889 69.5959 15.4901C69.7607 15.7884 69.843 16.1761 69.843 16.6534V21H68.5987V20.1051H68.5476C68.4652 20.2699 68.3416 20.4318 68.1768 20.5909C68.0121 20.75 67.8004 20.8821 67.5419 20.9872C67.2834 21.0923 66.9737 21.1449 66.6129 21.1449ZM66.8899 20.1222C67.2422 20.1222 67.5433 20.0526 67.7933 19.9134C68.0462 19.7741 68.2379 19.5923 68.3686 19.3679C68.5021 19.1406 68.5689 18.8977 68.5689 18.6392V17.7955C68.5234 17.8409 68.4354 17.8835 68.3047 17.9233C68.1768 17.9602 68.0305 17.9929 67.8658 18.0213C67.701 18.0469 67.5405 18.071 67.3842 18.0938C67.228 18.1136 67.0973 18.1307 66.9922 18.1449C66.745 18.1761 66.5192 18.2287 66.3146 18.3026C66.1129 18.3764 65.951 18.483 65.8288 18.6222C65.7095 18.7585 65.6499 18.9403 65.6499 19.1676C65.6499 19.483 65.7663 19.7216 65.9993 19.8835C66.2322 20.0426 66.5291 20.1222 66.8899 20.1222ZM71.5401 21V14.4545H72.8143V21H71.5401ZM72.1836 13.4446C71.962 13.4446 71.7717 13.3707 71.6126 13.223C71.4563 13.0724 71.3782 12.8935 71.3782 12.6861C71.3782 12.4759 71.4563 12.2969 71.6126 12.1491C71.7717 11.9986 71.962 11.9233 72.1836 11.9233C72.4052 11.9233 72.5941 11.9986 72.7504 12.1491C72.9094 12.2969 72.989 12.4759 72.989 12.6861C72.989 12.8935 72.9094 13.0724 72.7504 13.223C72.5941 13.3707 72.4052 13.4446 72.1836 13.4446ZM75.5341 14.4545L76.9787 17.0028L78.4361 14.4545H79.8295L77.7884 17.7273L79.8466 21H78.4531L76.9787 18.554L75.5085 21H74.1108L76.1477 17.7273L74.1364 14.4545H75.5341ZM83.0309 21.1449C82.6161 21.1449 82.2411 21.0682 81.9059 20.9148C81.5707 20.7585 81.305 20.5327 81.109 20.2372C80.9158 19.9418 80.8192 19.5795 80.8192 19.1506C80.8192 18.7812 80.8903 18.4773 81.0323 18.2386C81.1744 18 81.3661 17.8111 81.6076 17.6719C81.8491 17.5327 82.119 17.4276 82.4173 17.3565C82.7156 17.2855 83.0195 17.2315 83.3292 17.1946C83.7212 17.1491 84.0394 17.1122 84.2837 17.0838C84.5281 17.0526 84.7056 17.0028 84.8164 16.9347C84.9272 16.8665 84.9826 16.7557 84.9826 16.6023V16.5724C84.9826 16.2003 84.8775 15.9119 84.6673 15.7074C84.4599 15.5028 84.1502 15.4006 83.7383 15.4006C83.3093 15.4006 82.9712 15.4957 82.7241 15.6861C82.4798 15.8736 82.3107 16.0824 82.217 16.3125L81.0195 16.0398C81.1616 15.642 81.369 15.321 81.6417 15.0767C81.9173 14.8295 82.234 14.6506 82.592 14.5398C82.9499 14.4261 83.3263 14.3693 83.7212 14.3693C83.9826 14.3693 84.2596 14.4006 84.5522 14.4631C84.8477 14.5227 85.1232 14.6335 85.3789 14.7955C85.6374 14.9574 85.8491 15.1889 86.0138 15.4901C86.1786 15.7884 86.261 16.1761 86.261 16.6534V21H85.0167V20.1051H84.9656C84.8832 20.2699 84.7596 20.4318 84.5948 20.5909C84.43 20.75 84.2184 20.8821 83.9599 20.9872C83.7013 21.0923 83.3917 21.1449 83.0309 21.1449ZM83.3079 20.1222C83.6602 20.1222 83.9613 20.0526 84.2113 19.9134C84.4641 19.7741 84.6559 19.5923 84.7866 19.3679C84.9201 19.1406 84.9869 18.8977 84.9869 18.6392V17.7955C84.9414 17.8409 84.8533 17.8835 84.7227 17.9233C84.5948 17.9602 84.4485 17.9929 84.2837 18.0213C84.119 18.0469 83.9585 18.071 83.8022 18.0938C83.646 18.1136 83.5153 18.1307 83.4102 18.1449C83.163 18.1761 82.9371 18.2287 82.7326 18.3026C82.5309 18.3764 82.369 18.483 82.2468 18.6222C82.1275 18.7585 82.0678 18.9403 82.0678 19.1676C82.0678 19.483 82.1843 19.7216 82.4173 19.8835C82.6502 20.0426 82.9471 20.1222 83.3079 20.1222ZM87.9581 21V14.4545H89.1896V15.4943H89.2578C89.3771 15.142 89.5874 14.8651 89.8885 14.6634C90.1925 14.4588 90.5362 14.3565 90.9197 14.3565C90.9993 14.3565 91.093 14.3594 91.201 14.3651C91.3118 14.3707 91.3984 14.3778 91.4609 14.3864V15.6051C91.4098 15.5909 91.3189 15.5753 91.1882 15.5582C91.0575 15.5384 90.9268 15.5284 90.7962 15.5284C90.495 15.5284 90.2266 15.5923 89.9908 15.7202C89.7578 15.8452 89.5732 16.0199 89.4368 16.2443C89.3004 16.4659 89.2322 16.7187 89.2322 17.0028V21H87.9581ZM97.0135 17.1136V21H95.7393V14.4545H96.9624V15.5199H97.0433C97.1939 15.1733 97.4297 14.8949 97.7507 14.6847C98.0746 14.4744 98.4822 14.3693 98.9737 14.3693C99.4197 14.3693 99.8104 14.4631 100.146 14.6506C100.481 14.8352 100.741 15.1108 100.925 15.4773C101.11 15.8437 101.202 16.2969 101.202 16.8366V21H99.9283V16.9901C99.9283 16.5156 99.8047 16.1449 99.5575 15.8778C99.3104 15.608 98.9709 15.473 98.5391 15.473C98.2436 15.473 97.9808 15.5369 97.7507 15.6648C97.5234 15.7926 97.343 15.9801 97.2095 16.2273C97.0788 16.4716 97.0135 16.767 97.0135 17.1136ZM104.816 21.1449C104.401 21.1449 104.026 21.0682 103.691 20.9148C103.356 20.7585 103.09 20.5327 102.894 20.2372C102.701 19.9418 102.604 19.5795 102.604 19.1506C102.604 18.7812 102.675 18.4773 102.817 18.2386C102.96 18 103.151 17.8111 103.393 17.6719C103.634 17.5327 103.904 17.4276 104.202 17.3565C104.501 17.2855 104.805 17.2315 105.114 17.1946C105.506 17.1491 105.825 17.1122 106.069 17.0838C106.313 17.0526 106.491 17.0028 106.602 16.9347C106.712 16.8665 106.768 16.7557 106.768 16.6023V16.5724C106.768 16.2003 106.663 15.9119 106.452 15.7074C106.245 15.5028 105.935 15.4006 105.523 15.4006C105.094 15.4006 104.756 15.4957 104.509 15.6861C104.265 15.8736 104.096 16.0824 104.002 16.3125L102.805 16.0398C102.947 15.642 103.154 15.321 103.427 15.0767C103.702 14.8295 104.019 14.6506 104.377 14.5398C104.735 14.4261 105.112 14.3693 105.506 14.3693C105.768 14.3693 106.045 14.4006 106.337 14.4631C106.633 14.5227 106.908 14.6335 107.164 14.7955C107.423 14.9574 107.634 15.1889 107.799 15.4901C107.964 15.7884 108.046 16.1761 108.046 16.6534V21H106.802V20.1051H106.751C106.668 20.2699 106.545 20.4318 106.38 20.5909C106.215 20.75 106.004 20.8821 105.745 20.9872C105.487 21.0923 105.177 21.1449 104.816 21.1449ZM105.093 20.1222C105.445 20.1222 105.746 20.0526 105.996 19.9134C106.249 19.7741 106.441 19.5923 106.572 19.3679C106.705 19.1406 106.772 18.8977 106.772 18.6392V17.7955C106.727 17.8409 106.638 17.8835 106.508 17.9233C106.38 17.9602 106.234 17.9929 106.069 18.0213C105.904 18.0469 105.744 18.071 105.587 18.0938C105.431 18.1136 105.3 18.1307 105.195 18.1449C104.948 18.1761 104.722 18.2287 104.518 18.3026C104.316 18.3764 104.154 18.483 104.032 18.6222C103.913 18.7585 103.853 18.9403 103.853 19.1676C103.853 19.483 103.969 19.7216 104.202 19.8835C104.435 20.0426 104.732 20.1222 105.093 20.1222Z" fill="#A1A1AA"/>
<path d="M58.8267 42H56.4972L61.7315 27.4545H64.267L69.5014 42H67.1719L63.0597 30.0966H62.946L58.8267 42ZM59.2173 36.304H66.7741V38.1506H59.2173V36.304ZM71.4315 46.0909V31.0909H73.5053V32.8594H73.6829C73.806 32.6321 73.9835 32.3693 74.2156 32.071C74.4476 31.7727 74.7695 31.5123 75.1815 31.2898C75.5934 31.0625 76.1379 30.9489 76.815 30.9489C77.6957 30.9489 78.4817 31.1714 79.1729 31.6165C79.8642 32.0616 80.4064 32.7031 80.7994 33.5412C81.1971 34.3793 81.396 35.3878 81.396 36.5668C81.396 37.7457 81.1995 38.7566 80.8065 39.5994C80.4135 40.4375 79.8737 41.0838 79.1871 41.5384C78.5006 41.9882 77.717 42.2131 76.8363 42.2131C76.1734 42.2131 75.6313 42.1018 75.2099 41.8793C74.7932 41.6567 74.4665 41.3963 74.2298 41.098C73.993 40.7997 73.8107 40.5346 73.6829 40.3026H73.555V46.0909H71.4315ZM73.5124 36.5455C73.5124 37.3125 73.6237 37.9848 73.8462 38.5625C74.0688 39.1402 74.3907 39.5923 74.8121 39.919C75.2335 40.241 75.7496 40.402 76.3604 40.402C76.9949 40.402 77.5252 40.2339 77.9513 39.8977C78.3775 39.5568 78.6995 39.0952 78.9173 38.5128C79.1398 37.9304 79.2511 37.2746 79.2511 36.5455C79.2511 35.8258 79.1422 35.1795 78.9244 34.6065C78.7113 34.0336 78.3893 33.5814 77.9585 33.25C77.5323 32.9186 76.9996 32.7528 76.3604 32.7528C75.7449 32.7528 75.2241 32.9115 74.7979 33.2287C74.3765 33.5459 74.0569 33.9886 73.8391 34.5568C73.6213 35.125 73.5124 35.7879 73.5124 36.5455ZM83.7752 46.0909V31.0909H85.8491V32.8594H86.0266C86.1497 32.6321 86.3273 32.3693 86.5593 32.071C86.7913 31.7727 87.1133 31.5123 87.5252 31.2898C87.9371 31.0625 88.4817 30.9489 89.1587 30.9489C90.0394 30.9489 90.8254 31.1714 91.5167 31.6165C92.208 32.0616 92.7501 32.7031 93.1431 33.5412C93.5408 34.3793 93.7397 35.3878 93.7397 36.5668C93.7397 37.7457 93.5432 38.7566 93.1502 39.5994C92.7572 40.4375 92.2174 41.0838 91.5309 41.5384C90.8443 41.9882 90.0607 42.2131 89.18 42.2131C88.5172 42.2131 87.975 42.1018 87.5536 41.8793C87.137 41.6567 86.8103 41.3963 86.5735 41.098C86.3368 40.7997 86.1545 40.5346 86.0266 40.3026H85.8988V46.0909H83.7752ZM85.8562 36.5455C85.8562 37.3125 85.9674 37.9848 86.19 38.5625C86.4125 39.1402 86.7345 39.5923 87.1559 39.919C87.5773 40.241 88.0934 40.402 88.7042 40.402C89.3387 40.402 89.869 40.2339 90.2951 39.8977C90.7212 39.5568 91.0432 39.0952 91.261 38.5128C91.4835 37.9304 91.5948 37.2746 91.5948 36.5455C91.5948 35.8258 91.4859 35.1795 91.2681 34.6065C91.055 34.0336 90.7331 33.5814 90.3022 33.25C89.8761 32.9186 89.3434 32.7528 88.7042 32.7528C88.0887 32.7528 87.5678 32.9115 87.1417 33.2287C86.7203 33.5459 86.4007 33.9886 86.1829 34.5568C85.9651 35.125 85.8562 35.7879 85.8562 36.5455ZM109.516 31.2756C109.44 30.6032 109.127 30.0824 108.578 29.7131C108.029 29.339 107.338 29.152 106.504 29.152C105.908 29.152 105.392 29.2467 104.956 29.4361C104.52 29.6207 104.182 29.8764 103.94 30.2031C103.704 30.5251 103.585 30.892 103.585 31.304C103.585 31.6496 103.666 31.9479 103.827 32.1989C103.992 32.4498 104.208 32.6605 104.473 32.831C104.743 32.9967 105.032 33.1364 105.339 33.25C105.647 33.3589 105.943 33.4489 106.227 33.5199L107.648 33.8892C108.112 34.0028 108.588 34.1567 109.075 34.3509C109.563 34.545 110.015 34.8007 110.432 35.1179C110.848 35.4351 111.185 35.8281 111.44 36.2969C111.701 36.7656 111.831 37.3267 111.831 37.9801C111.831 38.804 111.618 39.5355 111.192 40.1747C110.77 40.8139 110.157 41.3182 109.352 41.6875C108.552 42.0568 107.584 42.2415 106.447 42.2415C105.358 42.2415 104.416 42.0687 103.621 41.723C102.825 41.3774 102.203 40.8873 101.753 40.2528C101.303 39.6136 101.054 38.8561 101.007 37.9801H103.209C103.251 38.5057 103.422 38.9437 103.72 39.294C104.023 39.6397 104.409 39.8977 104.878 40.0682C105.351 40.2339 105.87 40.3168 106.433 40.3168C107.054 40.3168 107.605 40.2197 108.088 40.0256C108.576 39.8267 108.959 39.5521 109.239 39.2017C109.518 38.8466 109.658 38.4323 109.658 37.9588C109.658 37.5279 109.535 37.1752 109.288 36.9006C109.047 36.6259 108.718 36.3987 108.301 36.2188C107.889 36.0388 107.423 35.8802 106.902 35.7429L105.183 35.2741C104.018 34.9569 103.095 34.4905 102.413 33.875C101.736 33.2595 101.398 32.4451 101.398 31.4318C101.398 30.5937 101.625 29.8622 102.08 29.2372C102.534 28.6122 103.15 28.1269 103.926 27.7812C104.703 27.4309 105.579 27.2557 106.554 27.2557C107.539 27.2557 108.408 27.4285 109.161 27.7741C109.918 28.1198 110.515 28.5956 110.95 29.2017C111.386 29.803 111.613 30.4943 111.632 31.2756H109.516ZM119.375 31.0909V32.7955H113.417V31.0909H119.375ZM115.015 28.4773H117.138V38.7969C117.138 39.2088 117.2 39.5189 117.323 39.7273C117.446 39.9309 117.605 40.0705 117.799 40.1463C117.998 40.2173 118.213 40.2528 118.445 40.2528C118.615 40.2528 118.765 40.241 118.892 40.2173C119.02 40.1937 119.12 40.1747 119.191 40.1605L119.574 41.9148C119.451 41.9621 119.276 42.0095 119.049 42.0568C118.821 42.1089 118.537 42.1373 118.196 42.142C117.638 42.1515 117.117 42.0521 116.634 41.8438C116.151 41.6354 115.76 41.3134 115.462 40.8778C115.164 40.4422 115.015 39.8954 115.015 39.2372V28.4773ZM126.202 42.2202C125.18 42.2202 124.287 41.9858 123.525 41.517C122.763 41.0483 122.171 40.3925 121.749 39.5497C121.328 38.7069 121.117 37.7221 121.117 36.5952C121.117 35.4635 121.328 34.474 121.749 33.6264C122.171 32.7789 122.763 32.1207 123.525 31.652C124.287 31.1832 125.18 30.9489 126.202 30.9489C127.225 30.9489 128.118 31.1832 128.88 31.652C129.642 32.1207 130.234 32.7789 130.656 33.6264C131.077 34.474 131.288 35.4635 131.288 36.5952C131.288 37.7221 131.077 38.7069 130.656 39.5497C130.234 40.3925 129.642 41.0483 128.88 41.517C128.118 41.9858 127.225 42.2202 126.202 42.2202ZM126.21 40.4375C126.872 40.4375 127.422 40.2623 127.857 39.9119C128.293 39.5616 128.615 39.0952 128.823 38.5128C129.036 37.9304 129.143 37.2888 129.143 36.5881C129.143 35.892 129.036 35.2528 128.823 34.6705C128.615 34.0833 128.293 33.6122 127.857 33.2571C127.422 32.902 126.872 32.7244 126.21 32.7244C125.542 32.7244 124.988 32.902 124.548 33.2571C124.112 33.6122 123.788 34.0833 123.575 34.6705C123.366 35.2528 123.262 35.892 123.262 36.5881C123.262 37.2888 123.366 37.9304 123.575 38.5128C123.788 39.0952 124.112 39.5616 124.548 39.9119C124.988 40.2623 125.542 40.4375 126.21 40.4375ZM133.658 42V31.0909H135.711V32.8239H135.824C136.023 32.2367 136.373 31.7751 136.875 31.4389C137.382 31.098 137.955 30.9276 138.594 30.9276C138.727 30.9276 138.883 30.9323 139.063 30.9418C139.248 30.9512 139.392 30.9631 139.496 30.9773V33.0085C139.411 32.9848 139.259 32.9588 139.042 32.9304C138.824 32.8973 138.606 32.8807 138.388 32.8807C137.886 32.8807 137.439 32.9872 137.046 33.2003C136.658 33.4086 136.35 33.6998 136.123 34.0739C135.895 34.4432 135.782 34.8646 135.782 35.3381V42H133.658ZM145.645 42.2202C144.57 42.2202 143.644 41.9905 142.868 41.5312C142.096 41.0672 141.5 40.4162 141.078 39.5781C140.661 38.7353 140.453 37.7481 140.453 36.6165C140.453 35.4991 140.661 34.5142 141.078 33.6619C141.5 32.8097 142.087 32.1444 142.839 31.6662C143.597 31.188 144.482 30.9489 145.496 30.9489C146.111 30.9489 146.708 31.0507 147.286 31.2543C147.863 31.4579 148.382 31.7775 148.841 32.2131C149.3 32.6487 149.662 33.2145 149.928 33.9105C150.193 34.6018 150.325 35.4422 150.325 36.4318V37.1847H141.653V35.5938H148.244C148.244 35.035 148.131 34.5402 147.903 34.1094C147.676 33.6738 147.357 33.3305 146.945 33.0795C146.537 32.8286 146.059 32.7031 145.51 32.7031C144.913 32.7031 144.393 32.8499 143.947 33.1435C143.507 33.4323 143.166 33.8111 142.925 34.2798C142.688 34.7438 142.57 35.2481 142.57 35.7926V37.0355C142.57 37.7647 142.697 38.3849 142.953 38.8963C143.214 39.4077 143.576 39.7983 144.04 40.0682C144.504 40.3333 145.046 40.4659 145.666 40.4659C146.069 40.4659 146.436 40.4091 146.767 40.2955C147.098 40.1771 147.385 40.0019 147.626 39.7699C147.868 39.5379 148.053 39.2514 148.18 38.9105L150.19 39.2727C150.029 39.8646 149.741 40.383 149.324 40.8281C148.912 41.2685 148.393 41.6117 147.768 41.858C147.148 42.0994 146.44 42.2202 145.645 42.2202Z" fill="#F4F4F5"/>
</g>
<defs>
<filter id="filter0_d_2154_715" x="0" y="0" width="168" height="64" filterUnits="userSpaceOnUse" color-interpolation-filters="sRGB">
<feFlood flood-opacity="0" result="BackgroundImageFix"/>
<feColorMatrix in="SourceAlpha" type="matrix" values="0 0 0 0 0 0 0 0 0 0 0 0 0 0 0 0 0 0 127 0" result="hardAlpha"/>
<feOffset dy="4"/>
<feGaussianBlur stdDeviation="2"/>
<feComposite in2="hardAlpha" operator="out"/>
<feColorMatrix type="matrix" values="0 0 0 0 0 0 0 0 0 0 0 0 0 0 0 0 0 0 0.25 0"/>
<feBlend mode="normal" in2="BackgroundImageFix" result="effect1_dropShadow_2154_715"/>
<feBlend mode="normal" in="SourceGraphic" in2="effect1_dropShadow_2154_715" result="shape"/>
</filter>
</defs>
</svg>
