<svg width="186" height="64" viewBox="0 0 186 64" fill="none" xmlns="http://www.w3.org/2000/svg">
<g filter="url(#filter0_d_2154_721)">
<rect x="4" width="178" height="56" rx="8" fill="#09090B" shape-rendering="crispEdges"/>
<rect x="4.5" y="0.5" width="177" height="55" rx="7.5" stroke="#A1A1AA" shape-rendering="crispEdges"/>
<path d="M18.817 12L34.8123 28L18.8186 44C18.5342 43.8804 18.2915 43.6794 18.121 43.4223C17.9505 43.1652 17.8598 42.8634 17.8604 42.5549V13.4467C17.8602 13.1383 17.9508 12.8366 18.121 12.5794C18.2911 12.3221 18.5332 12.1206 18.817 12ZM35.9229 29.1105L39.5388 32.7265L22.3591 42.6743L35.9229 29.1105ZM40.9478 24.0872L45.357 26.6413C45.595 26.7794 45.7926 26.9775 45.9299 27.216C46.0673 27.4545 46.1396 27.7248 46.1396 28C46.1396 28.2752 46.0673 28.5455 45.9299 28.784C45.7926 29.0225 45.595 29.2206 45.357 29.3587L40.9462 31.9128L37.0334 28L40.9478 24.0872ZM22.3591 13.3257L39.5404 23.2719L35.9229 26.8895L22.3591 13.3257Z" fill="#F4F4F5"/>
<path d="M59.7841 21H56.9588V12.2727H59.8736C60.7287 12.2727 61.4631 12.4474 62.0767 12.7969C62.6903 13.1435 63.1605 13.642 63.4872 14.2926C63.8168 14.9403 63.9815 15.7173 63.9815 16.6236C63.9815 17.5327 63.8153 18.3139 63.483 18.9673C63.1534 19.6207 62.6761 20.1236 62.0511 20.4759C61.4261 20.8253 60.6705 21 59.7841 21ZM58.2756 19.8494H59.7116C60.3764 19.8494 60.929 19.7244 61.3693 19.4744C61.8097 19.2216 62.1392 18.8565 62.358 18.3793C62.5767 17.8991 62.6861 17.3139 62.6861 16.6236C62.6861 15.9389 62.5767 15.358 62.358 14.8807C62.142 14.4034 61.8196 14.0412 61.3906 13.794C60.9616 13.5469 60.429 13.4233 59.7926 13.4233H58.2756V19.8494ZM65.5167 21V14.4545H66.7908V21H65.5167ZM66.1602 13.4446C65.9386 13.4446 65.7482 13.3707 65.5891 13.223C65.4329 13.0724 65.3548 12.8935 65.3548 12.6861C65.3548 12.4759 65.4329 12.2969 65.5891 12.1491C65.7482 11.9986 65.9386 11.9233 66.1602 11.9233C66.3817 11.9233 66.5707 11.9986 66.7269 12.1491C66.886 12.2969 66.9656 12.4759 66.9656 12.6861C66.9656 12.8935 66.886 13.0724 66.7269 13.223C66.5707 13.3707 66.3817 13.4446 66.1602 13.4446ZM73.4098 16.0526L72.255 16.2571C72.2067 16.1094 72.13 15.9687 72.0249 15.8352C71.9226 15.7017 71.7834 15.5923 71.6072 15.5071C71.4311 15.4219 71.2109 15.3793 70.9467 15.3793C70.5859 15.3793 70.2848 15.4602 70.0433 15.6222C69.8018 15.7812 69.6811 15.9872 69.6811 16.2401C69.6811 16.4588 69.7621 16.6349 69.924 16.7685C70.0859 16.902 70.3473 17.0114 70.7081 17.0966L71.7479 17.3352C72.3501 17.4744 72.799 17.6889 73.0945 17.9787C73.3899 18.2685 73.5376 18.6449 73.5376 19.108C73.5376 19.5 73.424 19.8494 73.1967 20.1562C72.9723 20.4602 72.6584 20.6989 72.255 20.8722C71.8544 21.0455 71.3899 21.1321 70.8615 21.1321C70.1286 21.1321 69.5305 20.9759 69.0675 20.6634C68.6044 20.348 68.3203 19.9006 68.2152 19.321L69.4467 19.1335C69.5234 19.4545 69.6811 19.6974 69.9197 19.8622C70.1584 20.0241 70.4695 20.1051 70.853 20.1051C71.2706 20.1051 71.6044 20.0185 71.8544 19.8452C72.1044 19.669 72.2294 19.4545 72.2294 19.2017C72.2294 18.9972 72.1527 18.8253 71.9993 18.6861C71.8487 18.5469 71.6172 18.4418 71.3047 18.3707L70.1967 18.1278C69.5859 17.9886 69.1342 17.767 68.8416 17.4631C68.5518 17.1591 68.407 16.7741 68.407 16.3082C68.407 15.9219 68.5149 15.5838 68.7308 15.294C68.9467 15.0043 69.245 14.7784 69.6257 14.6165C70.0064 14.4517 70.4425 14.3693 70.9339 14.3693C71.6413 14.3693 72.1982 14.5227 72.6044 14.8295C73.0107 15.1335 73.2791 15.5412 73.4098 16.0526ZM74.9386 23.4545V14.4545H76.1829V15.5156H76.2894C76.3633 15.3793 76.4698 15.2216 76.609 15.0426C76.7482 14.8636 76.9414 14.7074 77.1886 14.5739C77.4357 14.4375 77.7624 14.3693 78.1687 14.3693C78.6971 14.3693 79.1687 14.5028 79.5835 14.7699C79.9982 15.0369 80.3235 15.4219 80.5593 15.9247C80.7979 16.4276 80.9173 17.0327 80.9173 17.7401C80.9173 18.4474 80.7994 19.054 80.5636 19.5597C80.3278 20.0625 80.0039 20.4503 79.592 20.723C79.18 20.9929 78.7099 21.1278 78.1815 21.1278C77.7837 21.1278 77.4585 21.0611 77.2056 20.9276C76.9556 20.794 76.7596 20.6378 76.6175 20.4588C76.4755 20.2798 76.3661 20.1207 76.2894 19.9815H76.2127V23.4545H74.9386ZM76.1871 17.7273C76.1871 18.1875 76.2539 18.5909 76.3874 18.9375C76.521 19.2841 76.7141 19.5554 76.967 19.7514C77.2198 19.9446 77.5295 20.0412 77.896 20.0412C78.2766 20.0412 78.5948 19.9403 78.8505 19.7386C79.1062 19.5341 79.2994 19.2571 79.43 18.9077C79.5636 18.5582 79.6303 18.1648 79.6303 17.7273C79.6303 17.2955 79.565 16.9077 79.4343 16.5639C79.3065 16.2202 79.1133 15.9489 78.8548 15.75C78.5991 15.5511 78.2795 15.4517 77.896 15.4517C77.5266 15.4517 77.2141 15.5469 76.9585 15.7372C76.7056 15.9276 76.5138 16.1932 76.3832 16.5341C76.2525 16.875 76.1871 17.2727 76.1871 17.7273ZM85.1019 21.1321C84.4883 21.1321 83.9528 20.9915 83.4954 20.7102C83.038 20.429 82.6829 20.0355 82.43 19.5298C82.1772 19.0241 82.0508 18.4332 82.0508 17.7571C82.0508 17.0781 82.1772 16.4844 82.43 15.9759C82.6829 15.4673 83.038 15.0724 83.4954 14.7912C83.9528 14.5099 84.4883 14.3693 85.1019 14.3693C85.7156 14.3693 86.2511 14.5099 86.7085 14.7912C87.1658 15.0724 87.521 15.4673 87.7738 15.9759C88.0266 16.4844 88.1531 17.0781 88.1531 17.7571C88.1531 18.4332 88.0266 19.0241 87.7738 19.5298C87.521 20.0355 87.1658 20.429 86.7085 20.7102C86.2511 20.9915 85.7156 21.1321 85.1019 21.1321ZM85.1062 20.0625C85.5039 20.0625 85.8335 19.9574 86.0948 19.7472C86.3562 19.5369 86.5494 19.2571 86.6744 18.9077C86.8022 18.5582 86.8661 18.1733 86.8661 17.7528C86.8661 17.3352 86.8022 16.9517 86.6744 16.6023C86.5494 16.25 86.3562 15.9673 86.0948 15.7543C85.8335 15.5412 85.5039 15.4347 85.1062 15.4347C84.7056 15.4347 84.3732 15.5412 84.109 15.7543C83.8477 15.9673 83.6531 16.25 83.5252 16.6023C83.4002 16.9517 83.3377 17.3352 83.3377 17.7528C83.3377 18.1733 83.4002 18.5582 83.5252 18.9077C83.6531 19.2571 83.8477 19.5369 84.109 19.7472C84.3732 19.9574 84.7056 20.0625 85.1062 20.0625ZM90.8494 17.1136V21H89.5753V14.4545H90.7983V15.5199H90.8793C91.0298 15.1733 91.2656 14.8949 91.5866 14.6847C91.9105 14.4744 92.3182 14.3693 92.8097 14.3693C93.2557 14.3693 93.6463 14.4631 93.9815 14.6506C94.3168 14.8352 94.5767 15.1108 94.7614 15.4773C94.946 15.8437 95.0384 16.2969 95.0384 16.8366V21H93.7642V16.9901C93.7642 16.5156 93.6406 16.1449 93.3935 15.8778C93.1463 15.608 92.8068 15.473 92.375 15.473C92.0795 15.473 91.8168 15.5369 91.5866 15.6648C91.3594 15.7926 91.179 15.9801 91.0455 16.2273C90.9148 16.4716 90.8494 16.767 90.8494 17.1136ZM96.7472 21V14.4545H98.0213V21H96.7472ZM96.8665 13.581L97.8636 11.6165H99.206L97.8849 13.581H96.8665ZM105.335 14.4545L102.961 21H101.598L99.2198 14.4545H100.588L102.245 19.4915H102.314L103.967 14.4545H105.335ZM109.131 21.1321C108.486 21.1321 107.93 20.9943 107.464 20.7188C107.001 20.4403 106.643 20.0497 106.391 19.5469C106.141 19.0412 106.016 18.4489 106.016 17.7699C106.016 17.0994 106.141 16.5085 106.391 15.9972C106.643 15.4858 106.996 15.0866 107.447 14.7997C107.902 14.5128 108.433 14.3693 109.041 14.3693C109.411 14.3693 109.768 14.4304 110.115 14.5526C110.462 14.6747 110.773 14.8665 111.048 15.1278C111.324 15.3892 111.541 15.7287 111.7 16.1463C111.859 16.5611 111.939 17.0653 111.939 17.6591V18.1108H106.736V17.1562H110.69C110.69 16.821 110.622 16.5241 110.486 16.2656C110.349 16.0043 110.158 15.7983 109.911 15.6477C109.666 15.4972 109.379 15.4219 109.05 15.4219C108.692 15.4219 108.379 15.5099 108.112 15.6861C107.848 15.8594 107.643 16.0866 107.499 16.3679C107.357 16.6463 107.286 16.9489 107.286 17.2756V18.0213C107.286 18.4588 107.362 18.831 107.516 19.1378C107.672 19.4446 107.889 19.679 108.168 19.8409C108.446 20 108.771 20.0795 109.143 20.0795C109.385 20.0795 109.605 20.0455 109.804 19.9773C110.003 19.9062 110.175 19.8011 110.32 19.6619C110.464 19.5227 110.575 19.3509 110.652 19.1463L111.858 19.3636C111.761 19.7187 111.588 20.0298 111.338 20.2969C111.091 20.5611 110.78 20.767 110.405 20.9148C110.033 21.0597 109.608 21.1321 109.131 21.1321ZM114.627 12.2727V21H113.353V12.2727H114.627ZM120.791 17.1136V21H119.517V14.4545H120.74V15.5199H120.821C120.971 15.1733 121.207 14.8949 121.528 14.6847C121.852 14.4744 122.26 14.3693 122.751 14.3693C123.197 14.3693 123.588 14.4631 123.923 14.6506C124.258 14.8352 124.518 15.1108 124.703 15.4773C124.887 15.8437 124.98 16.2969 124.98 16.8366V21H123.706V16.9901C123.706 16.5156 123.582 16.1449 123.335 15.8778C123.088 15.608 122.748 15.473 122.316 15.473C122.021 15.473 121.758 15.5369 121.528 15.6648C121.301 15.7926 121.12 15.9801 120.987 16.2273C120.856 16.4716 120.791 16.767 120.791 17.1136ZM129.446 21.1321C128.832 21.1321 128.297 20.9915 127.839 20.7102C127.382 20.429 127.027 20.0355 126.774 19.5298C126.521 19.0241 126.395 18.4332 126.395 17.7571C126.395 17.0781 126.521 16.4844 126.774 15.9759C127.027 15.4673 127.382 15.0724 127.839 14.7912C128.297 14.5099 128.832 14.3693 129.446 14.3693C130.059 14.3693 130.595 14.5099 131.052 14.7912C131.51 15.0724 131.865 15.4673 132.118 15.9759C132.37 16.4844 132.497 17.0781 132.497 17.7571C132.497 18.4332 132.37 19.0241 132.118 19.5298C131.865 20.0355 131.51 20.429 131.052 20.7102C130.595 20.9915 130.059 21.1321 129.446 21.1321ZM129.45 20.0625C129.848 20.0625 130.177 19.9574 130.439 19.7472C130.7 19.5369 130.893 19.2571 131.018 18.9077C131.146 18.5582 131.21 18.1733 131.21 17.7528C131.21 17.3352 131.146 16.9517 131.018 16.6023C130.893 16.25 130.7 15.9673 130.439 15.7543C130.177 15.5412 129.848 15.4347 129.45 15.4347C129.049 15.4347 128.717 15.5412 128.453 15.7543C128.191 15.9673 127.997 16.25 127.869 16.6023C127.744 16.9517 127.681 17.3352 127.681 17.7528C127.681 18.1733 127.744 18.5582 127.869 18.9077C127.997 19.2571 128.191 19.5369 128.453 19.7472C128.717 19.9574 129.049 20.0625 129.45 20.0625Z" fill="#A1A1AA"/>
<path d="M67.4418 32.0497C67.3045 31.6188 67.1198 31.233 66.8878 30.892C66.6605 30.5464 66.3883 30.2528 66.071 30.0114C65.7538 29.7652 65.3916 29.5781 64.9844 29.4503C64.5819 29.3224 64.1392 29.2585 63.6562 29.2585C62.8371 29.2585 62.0985 29.4692 61.4403 29.8906C60.7822 30.312 60.2614 30.9299 59.8778 31.7443C59.4991 32.554 59.3097 33.5459 59.3097 34.7202C59.3097 35.8991 59.5014 36.8958 59.8849 37.7102C60.2685 38.5246 60.794 39.1425 61.4616 39.5639C62.1293 39.9853 62.8892 40.196 63.7415 40.196C64.5322 40.196 65.2211 40.035 65.8082 39.7131C66.4001 39.3911 66.857 38.9366 67.179 38.3494C67.5057 37.7576 67.669 37.0616 67.669 36.2614L68.2372 36.3679H64.0753V34.5568H69.7926V36.2116C69.7926 37.4332 69.5322 38.4938 69.0114 39.3935C68.4953 40.2884 67.7803 40.9796 66.8665 41.4673C65.9574 41.955 64.9157 42.1989 63.7415 42.1989C62.4252 42.1989 61.2699 41.8958 60.2756 41.2898C59.286 40.6837 58.5142 39.8243 57.9602 38.7116C57.4063 37.5942 57.1293 36.2685 57.1293 34.7344C57.1293 33.5743 57.2902 32.5327 57.6122 31.6094C57.9342 30.6861 58.3864 29.9025 58.9688 29.2585C59.5559 28.6098 60.2448 28.1151 61.0355 27.7741C61.831 27.4285 62.6998 27.2557 63.642 27.2557C64.428 27.2557 65.1596 27.3717 65.8366 27.6037C66.5185 27.8357 67.1245 28.1648 67.6548 28.5909C68.1899 29.017 68.6326 29.5237 68.983 30.1108C69.3333 30.6932 69.5701 31.3395 69.6932 32.0497H67.4418ZM77.0032 42.2202C75.9805 42.2202 75.0879 41.9858 74.3256 41.517C73.5633 41.0483 72.9715 40.3925 72.5501 39.5497C72.1287 38.7069 71.918 37.7221 71.918 36.5952C71.918 35.4635 72.1287 34.474 72.5501 33.6264C72.9715 32.7789 73.5633 32.1207 74.3256 31.652C75.0879 31.1832 75.9805 30.9489 77.0032 30.9489C78.0259 30.9489 78.9184 31.1832 79.6808 31.652C80.4431 32.1207 81.0349 32.7789 81.4563 33.6264C81.8777 34.474 82.0884 35.4635 82.0884 36.5952C82.0884 37.7221 81.8777 38.7069 81.4563 39.5497C81.0349 40.3925 80.4431 41.0483 79.6808 41.517C78.9184 41.9858 78.0259 42.2202 77.0032 42.2202ZM77.0103 40.4375C77.6732 40.4375 78.2224 40.2623 78.658 39.9119C79.0936 39.5616 79.4156 39.0952 79.6239 38.5128C79.837 37.9304 79.9435 37.2888 79.9435 36.5881C79.9435 35.892 79.837 35.2528 79.6239 34.6705C79.4156 34.0833 79.0936 33.6122 78.658 33.2571C78.2224 32.902 77.6732 32.7244 77.0103 32.7244C76.3427 32.7244 75.7887 32.902 75.3484 33.2571C74.9128 33.6122 74.5884 34.0833 74.3754 34.6705C74.167 35.2528 74.0629 35.892 74.0629 36.5881C74.0629 37.2888 74.167 37.9304 74.3754 38.5128C74.5884 39.0952 74.9128 39.5616 75.3484 39.9119C75.7887 40.2623 76.3427 40.4375 77.0103 40.4375ZM89.054 42.2202C88.0313 42.2202 87.1387 41.9858 86.3764 41.517C85.6141 41.0483 85.0223 40.3925 84.6009 39.5497C84.1795 38.7069 83.9688 37.7221 83.9688 36.5952C83.9688 35.4635 84.1795 34.474 84.6009 33.6264C85.0223 32.7789 85.6141 32.1207 86.3764 31.652C87.1387 31.1832 88.0313 30.9489 89.054 30.9489C90.0767 30.9489 90.9692 31.1832 91.7315 31.652C92.4938 32.1207 93.0857 32.7789 93.5071 33.6264C93.9285 34.474 94.1392 35.4635 94.1392 36.5952C94.1392 37.7221 93.9285 38.7069 93.5071 39.5497C93.0857 40.3925 92.4938 41.0483 91.7315 41.517C90.9692 41.9858 90.0767 42.2202 89.054 42.2202ZM89.0611 40.4375C89.724 40.4375 90.2732 40.2623 90.7088 39.9119C91.1444 39.5616 91.4664 39.0952 91.6747 38.5128C91.8878 37.9304 91.9943 37.2888 91.9943 36.5881C91.9943 35.892 91.8878 35.2528 91.6747 34.6705C91.4664 34.0833 91.1444 33.6122 90.7088 33.2571C90.2732 32.902 89.724 32.7244 89.0611 32.7244C88.3935 32.7244 87.8395 32.902 87.3991 33.2571C86.9635 33.6122 86.6392 34.0833 86.4261 34.6705C86.2178 35.2528 86.1136 35.892 86.1136 36.5881C86.1136 37.2888 86.2178 37.9304 86.4261 38.5128C86.6392 39.0952 86.9635 39.5616 87.3991 39.9119C87.8395 40.2623 88.3935 40.4375 89.0611 40.4375ZM101.083 46.3182C100.217 46.3182 99.4712 46.2045 98.8462 45.9773C98.226 45.75 97.7193 45.4493 97.3263 45.0753C96.9334 44.7012 96.6398 44.2917 96.4457 43.8466L98.271 43.0938C98.3988 43.3021 98.5692 43.5223 98.7823 43.7543C99.0001 43.991 99.2937 44.1922 99.663 44.358C100.037 44.5237 100.518 44.6065 101.105 44.6065C101.91 44.6065 102.575 44.41 103.1 44.017C103.626 43.6288 103.889 43.0085 103.889 42.1562V40.0114H103.754C103.626 40.2434 103.441 40.5014 103.2 40.7855C102.963 41.0696 102.636 41.3158 102.22 41.5241C101.803 41.7325 101.261 41.8366 100.593 41.8366C99.7317 41.8366 98.9551 41.6354 98.2638 41.233C97.5773 40.8258 97.0328 40.2268 96.6303 39.4361C96.2326 38.6406 96.0337 37.6629 96.0337 36.5028C96.0337 35.3428 96.2302 34.3485 96.6232 33.5199C97.021 32.6913 97.5655 32.0568 98.2567 31.6165C98.948 31.1714 99.7317 30.9489 100.608 30.9489C101.285 30.9489 101.832 31.0625 102.248 31.2898C102.665 31.5123 102.989 31.7727 103.221 32.071C103.458 32.3693 103.64 32.6321 103.768 32.8594H103.924V31.0909H106.005V42.2415C106.005 43.179 105.788 43.9484 105.352 44.5497C104.916 45.151 104.327 45.5961 103.583 45.8849C102.845 46.1738 102.011 46.3182 101.083 46.3182ZM101.062 40.0753C101.673 40.0753 102.189 39.9332 102.61 39.6491C103.037 39.3603 103.359 38.9484 103.576 38.4134C103.799 37.8736 103.91 37.2273 103.91 36.4744C103.91 35.7405 103.801 35.0942 103.583 34.5355C103.366 33.9768 103.046 33.5412 102.625 33.2287C102.203 32.9115 101.682 32.7528 101.062 32.7528C100.423 32.7528 99.8903 32.9186 99.4641 33.25C99.038 33.5767 98.716 34.0218 98.4982 34.5852C98.2852 35.1487 98.1786 35.7784 98.1786 36.4744C98.1786 37.1894 98.2875 37.8168 98.5053 38.3565C98.7231 38.8963 99.0451 39.3177 99.4712 39.6207C99.9021 39.9238 100.432 40.0753 101.062 40.0753ZM110.977 27.4545V42H108.853V27.4545H110.977ZM118.536 42.2202C117.461 42.2202 116.535 41.9905 115.759 41.5312C114.987 41.0672 114.39 40.4162 113.969 39.5781C113.552 38.7353 113.344 37.7481 113.344 36.6165C113.344 35.4991 113.552 34.5142 113.969 33.6619C114.39 32.8097 114.977 32.1444 115.73 31.6662C116.488 31.188 117.373 30.9489 118.386 30.9489C119.002 30.9489 119.598 31.0507 120.176 31.2543C120.754 31.4579 121.272 31.7775 121.732 32.2131C122.191 32.6487 122.553 33.2145 122.818 33.9105C123.083 34.6018 123.216 35.4422 123.216 36.4318V37.1847H114.544V35.5938H121.135C121.135 35.035 121.021 34.5402 120.794 34.1094C120.567 33.6738 120.247 33.3305 119.835 33.0795C119.428 32.8286 118.95 32.7031 118.401 32.7031C117.804 32.7031 117.283 32.8499 116.838 33.1435C116.398 33.4323 116.057 33.8111 115.815 34.2798C115.579 34.7438 115.46 35.2481 115.46 35.7926V37.0355C115.46 37.7647 115.588 38.3849 115.844 38.8963C116.104 39.4077 116.466 39.7983 116.93 40.0682C117.394 40.3333 117.937 40.4659 118.557 40.4659C118.959 40.4659 119.326 40.4091 119.658 40.2955C119.989 40.1771 120.276 40.0019 120.517 39.7699C120.759 39.5379 120.943 39.2514 121.071 38.9105L123.081 39.2727C122.92 39.8646 122.631 40.383 122.214 40.8281C121.803 41.2685 121.284 41.6117 120.659 41.858C120.039 42.0994 119.331 42.2202 118.536 42.2202ZM131.036 42V27.4545H136.22C137.352 27.4545 138.289 27.6605 139.033 28.0724C139.776 28.4844 140.332 29.0478 140.702 29.7628C141.071 30.473 141.256 31.2732 141.256 32.1634C141.256 33.0582 141.069 33.8632 140.695 34.5781C140.325 35.2884 139.767 35.8518 139.018 36.2685C138.275 36.6804 137.34 36.8864 136.213 36.8864H132.648V35.0256H136.014C136.729 35.0256 137.309 34.9025 137.754 34.6562C138.199 34.4053 138.526 34.0644 138.734 33.6335C138.943 33.2027 139.047 32.7126 139.047 32.1634C139.047 31.6141 138.943 31.1264 138.734 30.7003C138.526 30.2741 138.197 29.9403 137.747 29.6989C137.302 29.4574 136.715 29.3366 135.986 29.3366H133.23V42H131.036ZM145.782 27.4545V42H143.658V27.4545H145.782ZM151.813 42.2415C151.122 42.2415 150.497 42.1136 149.938 41.858C149.379 41.5975 148.937 41.2211 148.61 40.7287C148.288 40.2363 148.127 39.6326 148.127 38.9176C148.127 38.3021 148.246 37.7955 148.482 37.3977C148.719 37 149.039 36.6851 149.441 36.4531C149.844 36.2211 150.293 36.0459 150.79 35.9276C151.288 35.8092 151.794 35.7192 152.31 35.6577C152.964 35.5819 153.494 35.5204 153.901 35.473C154.308 35.4209 154.604 35.3381 154.789 35.2244C154.974 35.1108 155.066 34.9261 155.066 34.6705V34.6207C155.066 34.0005 154.891 33.5199 154.54 33.179C154.195 32.8381 153.679 32.6676 152.992 32.6676C152.277 32.6676 151.714 32.8262 151.302 33.1435C150.895 33.456 150.613 33.804 150.457 34.1875L148.461 33.733C148.698 33.0701 149.043 32.535 149.498 32.1278C149.957 31.7159 150.485 31.4176 151.082 31.233C151.678 31.0436 152.306 30.9489 152.964 30.9489C153.399 30.9489 153.861 31.0009 154.349 31.1051C154.841 31.2045 155.3 31.3892 155.727 31.6591C156.157 31.929 156.51 32.3149 156.785 32.8168C157.059 33.3139 157.197 33.9602 157.197 34.7557V42H155.123V40.5085H155.038C154.9 40.7831 154.694 41.053 154.42 41.3182C154.145 41.5833 153.792 41.8035 153.362 41.9787C152.931 42.1539 152.415 42.2415 151.813 42.2415ZM152.275 40.5369C152.862 40.5369 153.364 40.4209 153.781 40.1889C154.202 39.9569 154.522 39.6539 154.739 39.2798C154.962 38.901 155.073 38.4962 155.073 38.0653V36.6591C154.997 36.7348 154.851 36.8059 154.633 36.8722C154.42 36.9337 154.176 36.9882 153.901 37.0355C153.627 37.0781 153.359 37.1184 153.099 37.1562C152.838 37.1894 152.621 37.2178 152.445 37.2415C152.033 37.2936 151.657 37.3812 151.316 37.5043C150.98 37.6274 150.71 37.8049 150.506 38.0369C150.308 38.2642 150.208 38.5672 150.208 38.946C150.208 39.4716 150.402 39.8693 150.79 40.1392C151.179 40.4044 151.674 40.5369 152.275 40.5369ZM160.977 46.0909C160.66 46.0909 160.371 46.0649 160.11 46.0128C159.85 45.9654 159.656 45.9134 159.528 45.8565L160.039 44.1165C160.428 44.2206 160.773 44.2656 161.076 44.2514C161.379 44.2372 161.647 44.1236 161.879 43.9105C162.116 43.6974 162.324 43.3494 162.504 42.8665L162.767 42.142L158.775 31.0909H161.048L163.811 39.5568H163.924L166.687 31.0909H168.967L164.471 43.456C164.263 44.0241 163.998 44.5047 163.676 44.8977C163.354 45.2955 162.97 45.5938 162.525 45.7926C162.08 45.9915 161.564 46.0909 160.977 46.0909Z" fill="#F4F4F5"/>
</g>
<defs>
<filter id="filter0_d_2154_721" x="0" y="0" width="186" height="64" filterUnits="userSpaceOnUse" color-interpolation-filters="sRGB">
<feFlood flood-opacity="0" result="BackgroundImageFix"/>
<feColorMatrix in="SourceAlpha" type="matrix" values="0 0 0 0 0 0 0 0 0 0 0 0 0 0 0 0 0 0 127 0" result="hardAlpha"/>
<feOffset dy="4"/>
<feGaussianBlur stdDeviation="2"/>
<feComposite in2="hardAlpha" operator="out"/>
<feColorMatrix type="matrix" values="0 0 0 0 0 0 0 0 0 0 0 0 0 0 0 0 0 0 0.25 0"/>
<feBlend mode="normal" in2="BackgroundImageFix" result="effect1_dropShadow_2154_721"/>
<feBlend mode="normal" in="SourceGraphic" in2="effect1_dropShadow_2154_721" result="shape"/>
</filter>
</defs>
</svg>
